<svg xmlns="http://www.w3.org/2000/svg" width="1200" height="630" viewBox="0 0 1200 630">
  <defs>
    <linearGradient id="bg" x1="0" x2="1" y1="0" y2="1">
      <stop stop-color="#11251d"/>
      <stop offset="1" stop-color="#2f5c48"/>
    </linearGradient>
    <radialGradient id="mist" cx=".15" cy=".15" r=".7">
      <stop stop-color="#c8d8d7" stop-opacity=".42"/>
      <stop offset="1" stop-color="#c8d8d7" stop-opacity="0"/>
    </radialGradient>
  </defs>
  <rect width="1200" height="630" fill="url(#bg)"/>
  <rect width="1200" height="630" fill="url(#mist)"/>
  <path d="M0 510c140-55 250-150 360-290 85 108 175 182 286 229 116-116 245-183 401-219 47 88 100 159 153 213v187H0Z" fill="#183126" opacity=".88"/>
  <path d="M0 555c210-49 431-54 650-15s381 38 550 2v88H0Z" fill="#d9c6a2" opacity=".13"/>
  <circle cx="170" cy="157" r="69" fill="#f4f7f4"/>
  <path d="M170 106 156 140h9l-13 27h14v22h8v-22h14l-13-27h9Z" fill="#2f5c48"/>
  <path d="M126 185c26-8 63-8 88 0" fill="none" stroke="#6e927f" stroke-width="5" stroke-linecap="round"/>
  <g font-family="Tahoma, Arial, sans-serif" text-anchor="end">
    <text x="1070" y="254" fill="#fff" font-size="94" font-weight="700">غابة رغدان</text>
    <text x="1070" y="330" fill="#d8e4df" font-size="36">الباحة · دليل مستقل للطبيعة والزيارة</text>
    <text x="1070" y="397" fill="#d9c6a2" font-size="25">عرعر السروات، ضباب تهامة، وممرات على حافة الغيم</text>
  </g>
</svg>
